<?xml version="1.0" standalone="no"?><!DOCTYPE svg PUBLIC "-//W3C//DTD SVG 1.1//EN" "http://www.w3.org/Graphics/SVG/1.1/DTD/svg11.dtd"><svg t="1573198664448" class="icon" viewBox="0 0 1024 1024" version="1.1" xmlns="http://www.w3.org/2000/svg" p-id="3831" xmlns:xlink="http://www.w3.org/1999/xlink" width="128" height="128"><defs><style type="text/css"></style></defs><path d="M512 0C228.693333 0 0 228.693333 0 512s228.693333 512 512 512 512-228.693333 512-512S795.306667 0 512 0z m257.706667 411.306667L486.4 694.613333c-6.826667 6.826667-17.066667 11.946667-29.013333 11.946667-10.24 0-20.48-5.12-29.013334-11.946667l-162.133333-162.133333c-15.36-15.36-15.36-40.96 0-58.026667 15.36-15.36 40.96-15.36 56.32 0l133.12 133.12 254.293333-256c15.36-15.36 40.96-15.36 56.32 0 20.48 17.066667 20.48 42.666667 3.413334 59.733334z" p-id="3832"></path></svg>